<svg width="135" height="35" viewBox="0 0 135 35" fill="none" xmlns="http://www.w3.org/2000/svg">
<path fill-rule="evenodd" clip-rule="evenodd" d="M14.2461 24.588L7.93737 13.7575C6.51925 11.3229 3.35081 10.47 0.889191 11.8366C0.51997 12.0415 0.389507 12.5057 0.602275 12.8709L10.8067 30.3892L14.2461 24.588ZM11.6761 31.8815L12.6233 33.5078C13.1846 34.4713 14.2141 35.0097 15.2641 34.9998C16.3142 35.0097 17.3437 34.4713 17.905 33.5078L29.9261 12.8709C30.1388 12.5057 30.0084 12.0415 29.6391 11.8366C27.5492 10.6764 24.9498 11.1159 23.3448 12.7649L12.4217 31.1887C12.238 31.4983 11.9761 31.7329 11.6761 31.8815Z" fill="#7C8AFF"/>
<path fill-rule="evenodd" clip-rule="evenodd" d="M39.0357 12.268C39.0357 11.6702 38.5518 11.1855 37.9547 11.1855H34.7118C34.115 11.1855 33.6309 11.6702 33.6309 12.268V24.3556C33.6309 30.2344 38.39 35 44.2604 35C50.1309 35 54.8899 30.2344 54.8899 24.3556V12.268C54.8899 11.6702 54.4059 11.1855 53.8089 11.1855H50.3858C49.789 11.1855 49.3049 11.6702 49.3049 12.268V24.6263C49.3049 27.4659 47.0062 29.768 44.1703 29.768C41.3345 29.768 39.0357 27.4659 39.0357 24.6263V12.268Z" fill="white"/>
<path fill-rule="evenodd" clip-rule="evenodd" d="M58.4941 20.2062C58.4941 15.2242 62.5272 11.1855 67.5022 11.1855H71.4657C72.0628 11.1855 72.5467 11.6702 72.5467 12.268V15.3266C72.5467 15.9244 72.0628 16.409 71.4657 16.409H67.7802C65.2927 16.409 63.2762 18.4284 63.2762 20.9193V33.9175C63.2762 34.5154 62.7922 35 62.1952 35H59.5751C58.9782 35 58.4941 34.5154 58.4941 33.9175V20.2062Z" fill="white"/>
<path fill-rule="evenodd" clip-rule="evenodd" d="M86.2383 11.1855C79.6714 11.1855 74.3477 16.5166 74.3477 23.0928C74.3477 29.6087 79.5743 34.9022 86.0581 34.9987V35H86.0623C86.3637 34.9998 86.6626 34.9886 86.9584 34.9664C87.3857 34.9343 87.8066 34.8796 88.2201 34.8037C91.248 34.2467 93.8748 32.5409 95.633 30.1544C96.0407 29.6011 95.6162 28.8659 94.9294 28.8659H90.9326C90.7288 28.8659 90.5324 28.9367 90.3678 29.0568C89.6902 29.5515 88.9261 29.9349 88.1028 30.1801C87.7286 30.2916 87.3421 30.3744 86.9458 30.4261C86.9449 30.4263 86.9438 30.4265 86.9429 30.4267C86.6528 30.4644 86.3575 30.4855 86.0581 30.4891V30.4875C82.062 30.3917 78.8517 27.1176 78.8517 23.0928C78.8517 19.0075 82.1589 15.6959 86.2383 15.6959C89.7235 15.6959 92.645 18.1128 93.4222 21.3642C93.2583 21.3151 93.0844 21.2886 92.9042 21.2886H83.5359C82.541 21.2886 81.7343 22.0963 81.7343 23.0928V23.9948C81.7343 24.9912 82.541 25.7989 83.5359 25.7989H89.8415H92.9042C92.9774 25.7989 93.0493 25.7946 93.1201 25.7861L93.115 25.7989H97.8205C98.0223 24.9295 98.1289 24.0237 98.1289 23.0928C98.1289 16.5166 92.8053 11.1855 86.2383 11.1855Z" fill="white"/>
<path d="M106.417 0H102.813C102.216 0 101.732 0.48464 101.732 1.08247V33.9175C101.732 34.5153 102.216 35 102.813 35H106.417C107.014 35 107.498 34.5153 107.498 33.9175V1.08247C107.498 0.48464 107.014 0 106.417 0Z" fill="white"/>
<path d="M126.032 23.25C126.032 24.878 124.714 26.1979 123.089 26.1979C121.463 26.1979 120.145 24.878 120.145 23.25C120.145 21.6218 121.463 20.3019 123.089 20.3019C124.714 20.3019 126.032 21.6218 126.032 23.25Z" fill="#7C8AFF"/>
<path fill-rule="evenodd" clip-rule="evenodd" d="M122.173 11.2646C116.077 11.7762 111.1 16.8956 111.1 23.1323C111.1 29.3692 115.888 34.4859 121.984 34.9975V30.279C118.48 29.7888 115.784 26.7759 115.784 23.1323C115.784 19.4887 118.669 16.4716 122.173 15.9814V11.2646ZM123.966 30.2833C127.484 29.8065 130.197 26.7866 130.197 23.1323C130.197 19.4781 127.484 16.4582 123.966 15.9814V11.2646C130.077 11.7615 134.881 16.8851 134.881 23.1323C134.881 29.3797 130.077 34.5032 123.966 35V30.2833Z" fill="white"/>
</svg>
