<svg width="135" height="35" viewBox="0 0 135 35" fill="none" xmlns="http://www.w3.org/2000/svg">
<path fill-rule="evenodd" clip-rule="evenodd" d="M13.7461 24.588L7.43737 13.7575C6.01925 11.3229 2.85081 10.47 0.389191 11.8366C0.0199703 12.0415 -0.110493 12.5057 0.102275 12.8709L10.3067 30.3892L13.7461 24.588ZM11.1761 31.8815L12.1233 33.5078C12.6846 34.4713 13.7141 35.0097 14.7641 34.9998C15.8142 35.0097 16.8437 34.4713 17.405 33.5078L29.4261 12.8709C29.6388 12.5057 29.5084 12.0415 29.1391 11.8366C27.0492 10.6764 24.4498 11.1159 22.8448 12.7649L11.9217 31.1887C11.738 31.4983 11.4761 31.7329 11.1761 31.8815Z" fill="#3C50F5"/>
<path fill-rule="evenodd" clip-rule="evenodd" d="M38.5376 12.268C38.5376 11.6702 38.0537 11.1855 37.4567 11.1855H34.2138C33.6169 11.1855 33.1328 11.6702 33.1328 12.268V24.3556C33.1328 30.2344 37.8919 35 43.7623 35C49.6329 35 54.3918 30.2344 54.3918 24.3556V12.268C54.3918 11.6702 53.9079 11.1855 53.3108 11.1855H49.8878C49.2909 11.1855 48.8068 11.6702 48.8068 12.268V24.6263C48.8068 27.4659 46.5081 29.768 43.6722 29.768C40.8365 29.768 38.5376 27.4659 38.5376 24.6263V12.268Z" fill="#1A1A1B"/>
<path fill-rule="evenodd" clip-rule="evenodd" d="M57.9922 20.2062C57.9922 15.2242 62.0253 11.1855 67.0002 11.1855H70.9638C71.5608 11.1855 72.0447 11.6702 72.0447 12.268V15.3266C72.0447 15.9244 71.5608 16.409 70.9638 16.409H67.2782C64.7907 16.409 62.7742 18.4284 62.7742 20.9193V33.9175C62.7742 34.5154 62.2903 35 61.6932 35H59.0732C58.4763 35 57.9922 34.5154 57.9922 33.9175V20.2062Z" fill="#1A1A1B"/>
<path fill-rule="evenodd" clip-rule="evenodd" d="M85.7383 11.1855C79.1714 11.1855 73.8477 16.5166 73.8477 23.0928C73.8477 29.6087 79.0743 34.9022 85.5581 34.9987V35H85.5623C85.8637 34.9998 86.1626 34.9886 86.4584 34.9664C86.8857 34.9343 87.3066 34.8796 87.7201 34.8037C90.748 34.2467 93.3748 32.5409 95.133 30.1544C95.5407 29.6011 95.1162 28.8659 94.4294 28.8659H90.4326C90.2288 28.8659 90.0324 28.9367 89.8678 29.0568C89.1902 29.5515 88.4261 29.9349 87.6028 30.1801C87.2286 30.2916 86.8421 30.3744 86.4458 30.4261C86.4449 30.4263 86.4438 30.4265 86.4429 30.4267C86.1528 30.4644 85.8575 30.4855 85.5581 30.4891V30.4875C81.562 30.3917 78.3517 27.1176 78.3517 23.0928C78.3517 19.0075 81.6589 15.6959 85.7383 15.6959C89.2235 15.6959 92.145 18.1128 92.9222 21.3642C92.7583 21.3151 92.5844 21.2886 92.4042 21.2886H83.0359C82.041 21.2886 81.2343 22.0963 81.2343 23.0928V23.9948C81.2343 24.9912 82.041 25.7989 83.0359 25.7989H89.3415H92.4042C92.4774 25.7989 92.5493 25.7946 92.6201 25.7861L92.615 25.7989H97.3205C97.5223 24.9295 97.6289 24.0237 97.6289 23.0928C97.6289 16.5166 92.3053 11.1855 85.7383 11.1855Z" fill="#1A1A1B"/>
<path d="M105.919 0H102.315C101.718 0 101.234 0.48464 101.234 1.08247V33.9175C101.234 34.5153 101.718 35 102.315 35H105.919C106.516 35 107 34.5153 107 33.9175V1.08247C107 0.48464 106.516 0 105.919 0Z" fill="#1A1A1B"/>
<path d="M125.532 23.25C125.532 24.878 124.214 26.1979 122.589 26.1979C120.963 26.1979 119.645 24.878 119.645 23.25C119.645 21.6218 120.963 20.3019 122.589 20.3019C124.214 20.3019 125.532 21.6218 125.532 23.25Z" fill="#3C50F5"/>
<path fill-rule="evenodd" clip-rule="evenodd" d="M121.675 11.2646C115.579 11.7762 110.602 16.8956 110.602 23.1323C110.602 29.3692 115.39 34.4859 121.486 34.9975V30.279C117.982 29.7888 115.286 26.7759 115.286 23.1323C115.286 19.4887 118.171 16.4716 121.675 15.9814V11.2646ZM123.468 30.2833C126.986 29.8065 129.699 26.7866 129.699 23.1323C129.699 19.4781 126.986 16.4582 123.468 15.9814V11.2646C129.578 11.7615 134.383 16.8851 134.383 23.1323C134.383 29.3797 129.578 34.5032 123.468 35V30.2833Z" fill="#1A1A1B"/>
</svg>
