<svg width="18" height="21" viewBox="0 0 18 21" fill="none" xmlns="http://www.w3.org/2000/svg">
<path d="M14.317 10.8885C14.308 9.25549 15.037 8.0225 16.512 7.1145C15.687 5.9175 14.44 5.25852 12.793 5.12952C11.235 5.00552 9.53099 6.05048 8.90799 6.05048C8.24899 6.05048 6.73899 5.1745 5.55299 5.1745C3.10399 5.2145 0.5 7.15448 0.5 11.1025C0.5 12.2685 0.711004 13.4725 1.132 14.7155C1.694 16.3495 3.723 20.3545 5.839 20.2875C6.945 20.2615 7.72699 19.4915 9.16699 19.4915C10.563 19.4915 11.287 20.2875 12.521 20.2875C14.655 20.2565 16.49 16.6165 17.026 14.9785C14.163 13.6125 14.317 10.9735 14.317 10.8885ZM11.832 3.58148C13.031 2.13948 12.921 0.826492 12.886 0.354492C11.828 0.416492 10.603 1.08447 9.90399 1.90747C9.13599 2.78847 8.684 3.87948 8.78 5.10748C9.926 5.19648 10.971 4.60048 11.832 3.58148Z" fill="#0B0B0B"/>
</svg>
