<svg width="19" height="20" viewBox="0 0 19 20" fill="none" xmlns="http://www.w3.org/2000/svg">
<mask id="mask0_1756_9229" style="mask-type:luminance" maskUnits="userSpaceOnUse" x="0" y="0" width="19" height="20">
<path d="M18.6739 9.44147C18.6739 4.42288 14.6055 0.354492 9.58694 0.354492C4.56836 0.354492 0.5 4.42288 0.5 9.44147V10.2675C0.5 15.2861 4.56836 19.3545 9.58694 19.3545C14.6055 19.3545 18.6739 15.2861 18.6739 10.2675V9.44147Z" fill="white"/>
</mask>
<g mask="url(#mask0_1756_9229)">
<path d="M18.6754 10.0645C18.6754 9.28645 18.6134 8.71742 18.4794 8.12842H9.77344V11.6434H14.8844C14.7814 12.5174 14.2244 13.8334 12.9884 14.7174L12.9714 14.8344L15.7234 17.0134L15.9144 17.0324C17.6654 15.3804 18.6754 12.9485 18.6754 10.0645Z" fill="#4285F4"/>
<path d="M9.77129 19.3275C12.2753 19.3275 14.3773 18.4855 15.9123 17.0325L12.9863 14.7175C12.2033 15.2755 11.1523 15.6645 9.77129 15.6645C7.31929 15.6645 5.23828 14.0125 4.49628 11.7285L4.38829 11.7375L1.52528 14.0005L1.48828 14.1065C3.01328 17.2015 6.14529 19.3275 9.77129 19.3275Z" fill="#34A853"/>
<path d="M4.49699 11.7286C4.30199 11.1386 4.188 10.5076 4.188 9.85461C4.188 9.20161 4.302 8.57059 4.487 7.98059L4.48199 7.85559L1.584 5.55664L1.489 5.6026C0.860998 6.8866 0.5 8.32861 0.5 9.85461C0.5 11.3806 0.860998 12.8226 1.489 14.1066L4.49699 11.7286Z" fill="#FBBC05"/>
<path d="M9.77129 4.04437C11.5133 4.04437 12.6873 4.81235 13.3573 5.45435L15.9743 2.84436C14.3663 1.31836 12.2753 0.381348 9.77129 0.381348C6.14529 0.381348 3.01328 2.50736 1.48828 5.60236L4.48628 7.98035C5.23828 5.69635 7.31929 4.04437 9.77129 4.04437Z" fill="#EB4335"/>
</g>
</svg>
