<svg width="24" height="25" viewBox="0 0 24 25" fill="none" xmlns="http://www.w3.org/2000/svg">
<path d="M20 4.85449H4C2.897 4.85449 2 5.75149 2 6.85449V18.8545C2 19.9575 2.897 20.8545 4 20.8545H20C21.103 20.8545 22 19.9575 22 18.8545V6.85449C22 5.75149 21.103 4.85449 20 4.85449ZM20 6.85449V7.36549L12 13.5885L4 7.36649V6.85449H20ZM4 18.8545V9.89849L11.386 15.6435C11.5611 15.781 11.7773 15.8558 12 15.8558C12.2227 15.8558 12.4389 15.781 12.614 15.6435L20 9.89849L20.002 18.8545H4Z" fill="#0B0B0B"/>
</svg>
